# xmcd
#
# Track frame offsets:
#	150
#	29391
#	51999
#	73067
#	97975
#	117253
#	135288
#	154509
#	175184
#	189912
#	205513
#	223646
#	240174
#	260394
#	276882
#	294828
#	313998
#
# Disc length: 4395 seconds
#
# Revision: 0
# Processed by: cddbd v1.5.1PL0 Copyright (c) Steve Scherf et al.
# Submitted via: dBpowerAMP V4.0
#
DISCID=e8112911
DTITLE=Various Artist - 30 Jaar Radio 3 FM 1985-1995 Vol.3, CD1
DYEAR=1900
DGENRE=
TTITLE0=Tears For Fears - Shout
TTITLE1=Murray Head - One Night In Bangkok
TTITLE2=Eurythmics - there Must Be An Angel (Playing With My Heart)
TTITLE3=Mr. Mister - Broken Wings
TTITLE4=Duran Duran - Notorious
TTITLE5=Level 42 - Lessons In Love
TTITLE6=Robert Cray Band - Right Next door
TTITLE7=Terence Trent D'Arby - Sign Your Name
TTITLE8=Gearge Michael - Faith
TTITLE9=Rick Astley - Never Gonna You Up
TTITLE10=Tina Turner and David Bowie - Tonight (live version)
TTITLE11=Fleetwood Mac - Everywhere
TTITLE12=Toto - Stop Loving You
TTITLE13=Paolo Conte - Max
TTITLE14=Lois Lane - It's The First Time
TTITLE15=Dave Stewart and Candy Dulfer - Lily Was Here
TTITLE16=Sydney Youngblood - If I Only Could
EXTD=
EXTT0=
EXTT1=
EXTT2=
EXTT3=
EXTT4=
EXTT5=
EXTT6=
EXTT7=
EXTT8=
EXTT9=
EXTT10=
EXTT11=
EXTT12=
EXTT13=
EXTT14=
EXTT15=
EXTT16=
PLAYORDER=
